#!OML:ASF F:\VICON\USERDATA\INSTALL\rory3\rory3.ASF
:FULLY-SPECIFIED
:DEGREES
571
root 4.91726 20.156 7.20109 12.026 -3.17113 -7.32259
lowerback 0.367459 -3.03413 3.61052
upperback -6.33743 -3.7319 3.78359
thorax -6.79357 -1.93977 2.17559
lowerneck -9.81051 -9.43068 -11.2779
upperneck 21.6454 -11.6103 2.23257
head 9.24341 -6.16482 1.26189
rclavicle -3.37344e-014 1.58034e-014
rhumerus -46.3162 0.4737 -81.8125
rradius 57.7822
rwrist 4.34983
rhand -12.2228 -69.7871
rfingers 7.12502
rthumb 13.8423 -260.693
lclavicle -3.37344e-014 1.58034e-014
lhumerus -41.3618 -20.253 78.53
lradius 65.0515
lwrist -1.7865
lhand -32.4952 -42.6571
lfingers 7.12502
lthumb -5.72687 -12.7545
rfemur -98.5481 5.69264 22.6291
rtibia 140.907
rfoot -2.76031 -10.0613
rtoes -1.16547
lfemur -5.82849 -4.87739 -16.3693
ltibia 1.27222e-014
lfoot 27.5477 8.46517
ltoes -12.9245
572
root 4.91687 20.1869 7.20638 11.9638 -3.42933 -7.19876
lowerback 0.531798 -2.93863 3.67782
upperback -6.27462 -3.59731 3.70698
thorax -6.83141 -1.87842 2.0568
lowerneck -9.70546 -9.43465 -11.2453
upperneck 21.5135 -11.6418 2.28346
head 9.18096 -6.17179 1.27794
rclavicle -6.95746e-016 1.22253e-014
rhumerus -46.0014 0.852857 -81.8833
rradius 57.1083
rwrist 4.83325
rhand -22.3351 -57.3017
rfingers 7.12502
rthumb 4.08522 -87.2423
lclavicle -6.95746e-016 1.22253e-014
lhumerus -41.4946 -19.8673 79.1584
lradius 64.6254
lwrist -1.81451
lhand -32.4263 -42.1855
lfingers 7.12502
lthumb -5.66032 -12.2811
rfemur -98.1534 6.34643 22.8077
rtibia 140.941
rfoot -2.76121 -10.3035
rtoes -0.579158
lfemur -5.8479 -4.6074 -16.8347
ltibia 7.15625e-015
lfoot 27.471 6.84815
ltoes -9.05762
573
root 4.91314 20.2044 7.22262 11.881 -3.8012 -7.00755
lowerback 0.394073 -2.7674 3.63398
upperback -6.13561 -3.38953 3.58746
thorax -6.60711 -1.77556 1.92602
lowerneck -10.1884 -9.48415 -11.0955
upperneck 21.746 -11.6719 2.22026
head 9.33828 -6.17432 1.20172
rclavicle 3.50172e-014 -3.65764e-014
rhumerus -45.639 1.28168 -82.1753
rradius 56.7184
rwrist 5.17759
rhand -22.2107 -58.5751
rfingers 7.12502
rthumb 4.20533 -88.5133
lclavicle 3.50172e-014 -3.65764e-014
lhumerus -41.5358 -19.6487 79.8026
lradius 64.1041
lwrist -1.82294
lhand -32.0605 -41.9348
lfingers 7.12502
lthumb -5.30716 -12.0212
rfemur -97.6571 7.07567 22.9285
rtibia 140.94
rfoot -2.94449 -10.4947
rtoes -1.03319
lfemur -5.88713 -4.23816 -17.3701
ltibia -4.77083e-015
lfoot 26.638 5.86421
ltoes -5.6387
574
root 4.9056 20.2092 7.23137 11.8002 -4.03012 -6.81325
lowerback 0.339092 -2.67003 3.5615
upperback -5.9699 -3.27934 3.43708
thorax -6.40183 -1.71993 1.79018
lowerneck -10.4723 -9.56922 -10.7701
upperneck 21.7307 -11.7978 2.1323
head 9.36465 -6.21068 1.09311
rclavicle 1.3946e-015 -2.70347e-014
rhumerus -45.197 1.89853 -82.7205
rradius 56.2707
rwrist 5.28654
rhand -22.7192 -60.1853
rfingers 7.12502
rthumb 3.71427 90.1327
lclavicle 1.3946e-015 -2.70347e-014
lhumerus -41.5205 -19.4092 80.246
lradius 63.5525
lwrist -1.91513
lhand -31.7372 -42.0518
lfingers 7.12502
lthumb -4.99497 -12.1307
rfemur -97.2642 7.68467 23.1347
rtibia 140.865
rfoot -3.06836 -10.6523
rtoes -1.32221
lfemur -6.27491 -4.00851 -17.8362
ltibia 0.452761
lfoot 25.2263 5.2631
ltoes -3.66934
575
root 4.90066 20.2016 7.2298 11.7552 -4.07981 -6.80123
lowerback 0.966736 -2.70485 3.62954
upperback -6.2259 -3.27498 3.44966
thorax -7.04329 -1.72322 1.81621
lowerneck -10.1866 -9.50459 -10.6388
upperneck 21.6819 -11.7551 2.07607
head 9.27898 -6.19187 1.07617
rclavicle 2.87011e-014 -8.94531e-016
rhumerus -45.4581 3.00726 -83.0887
rradius 55.891
rwrist 4.83344
rhand -22.3713 -59.1418
rfingers 7.12502
rthumb 4.0502 -89.083
lclavicle 2.87011e-014 -8.94531e-016
lhumerus -42.3004 -18.838 80.9036
lradius 63.1741
lwrist -2.21718
lhand -31.785 -42.2911
lfingers 7.12502
lthumb -5.04116 -12.371
rfemur -96.8943 8.26221 23.5265
rtibia 140.681
rfoot -3.29145 -10.9373
rtoes -0.707681
lfemur -7.69172 -3.93325 -18.0668
ltibia 2.77867
lfoot 22.5736 4.68291
ltoes -3.77406
576
root 4.9007 20.1915 7.22952 11.801 -4.22653 -6.87589
lowerback 1.1528 -2.68094 3.83215
upperback -6.22336 -3.21939 3.49106
thorax -7.15948 -1.70587 1.75461
lowerneck -10.1623 -9.57387 -10.8981
upperneck 21.5473 -11.8717 2.38191
head 9.27316 -6.23416 1.20534
rclavicle -4.36922e-014 5.36719e-015
rhumerus -45.2305 3.80025 -83.2097
rradius 55.115
rwrist 4.90382
rhand -20.8458 -55.6367
rfingers 7.12502
rthumb 5.5232 -85.5448
lclavicle -4.36922e-014 5.36719e-015
lhumerus -42.6058 -18.2767 81.494
lradius 62.761
lwrist -2.48443
lhand -32.0462 -42.2827
lfingers 7.12502
lthumb -5.2933 -12.3688
rfemur -96.4096 9.05864 23.9517
rtibia 140.349
rfoot -3.34484 -11.3458
rtoes -0.199969
lfemur -8.28705 -3.73235 -18.2483
ltibia 3.41879
lfoot 20.4421 3.26408
ltoes -5.84437
577
root 4.90376 20.1647 7.22962 11.9335 -4.45803 -6.91401
lowerback 1.10348 -2.5973 4.07642
upperback -6.13002 -3.10248 3.48434
thorax -7.04569 -1.66111 1.5961
lowerneck -10.6589 -9.75268 -11.0383
upperneck 21.7218 -12.0546 2.44413
head 9.45315 -6.31533 1.19262
rclavicle -2.4817e-014 4.37326e-015
rhumerus -44.8074 4.69291 -83.6582
rradius 54.8762
rwrist 4.68405
rhand -20.7532 -59.0496
rfingers 7.12502
rthumb 5.61261 -88.9552
lclavicle -2.4817e-014 4.37326e-015
lhumerus -42.6262 -17.944 82.0559
lradius 62.1858
lwrist -2.7165
lhand -32.0693 -42.4386
lfingers 7.12502
lthumb -5.31564 -12.5253
rfemur -96.0525 10.0317 24.2072
rtibia 139.989
rfoot -3.17091 -11.7261
rtoes -0.24377
lfemur -8.75419 -3.45548 -18.5058
ltibia 3.64035
lfoot 18.3058 1.91446
ltoes -7.96823
578
root 4.90529 20.1205 7.22755 12.1048 -4.72946 -6.83722
lowerback 1.12702 -2.47115 4.21112
upperback -6.25258 -2.92247 3.43183
thorax -7.20081 -1.58328 1.46061
lowerneck -10.2734 -9.62929 -10.6936
upperneck 21.4714 -11.9044 2.09622
head 9.2369 -6.25882 1.07101
rclavicle 6.26482e-015 -4.69132e-014
rhumerus -44.8588 5.46476 -83.9608
rradius 54.6973
rwrist 4.55087
rhand -21.7089 -59.1365
rfingers 7.12502
rthumb 4.68987 -89.0646
lclavicle 6.26482e-015 -4.69132e-014
lhumerus -42.9401 -17.7629 82.7179
lradius 61.6081
lwrist -2.91327
lhand -31.5981 -42.7153
lfingers 7.12502
lthumb -4.86069 -12.791
rfemur -95.9019 10.8297 24.2555
rtibia 139.656
rfoot -3.16311 -11.9497
rtoes -1.15035
lfemur -8.69908 -3.15101 -18.883
ltibia 2.74294
lfoot 16.4465 0.417806
ltoes -10.6949
579
root 4.90498 20.0701 7.2377 12.1624 -5.02779 -6.83512
lowerback 1.10792 -2.34288 4.38118
upperback -6.34151 -2.74115 3.39474
thorax -7.29531 -1.50619 1.31714
lowerneck -9.62579 -9.75666 -11.2022
upperneck 21.161 -12.1457 2.48916
head 9.08977 -6.37957 1.28416
rclavicle 4.35587e-014 -2.98177e-014
rhumerus -44.9429 6.06977 -84.0811
rradius 54.0803
rwrist 5.12898
rhand -22.1273 -56.7038
rfingers 7.12502
rthumb 4.28584 -86.6405
lclavicle 4.35587e-014 -2.98177e-014
lhumerus -43.2854 -17.58 83.3686
lradius 61.0294
lwrist -2.88821
lhand -31.1038 -42.7127
lfingers 7.12502
lthumb -4.38333 -12.7781
rfemur -95.4595 11.6071 24.459
rtibia 139.253
rfoot -3.26455 -12.2801
rtoes -2.79646
lfemur -7.53845 -2.77003 -19.1298
ltibia -1.19271e-014
lfoot 15.7453 -1.28699
ltoes -12.7446
580
root 4.90693 20.0174 7.25966 12.2084 -5.26586 -6.95375
lowerback 0.993376 -2.24615 4.72215
upperback -6.32524 -2.60403 3.38064
thorax -7.22892 -1.45829 1.09685
lowerneck -9.76766 -9.87948 -11.407
upperneck 21.307 -12.3147 2.68893
head 9.20704 -6.45305 1.34739
rclavicle -4.58758e-015 -3.85642e-014
rhumerus -44.7335 6.64097 -84.1976
rradius 53.5332
rwrist 5.74155
rhand -21.4083 -54.8842
rfingers 7.12502
rthumb 4.98009 -84.8057
lclavicle -4.58758e-015 -3.85642e-014
lhumerus -43.4775 -17.3933 83.9341
lradius 60.3515
lwrist -2.84678
lhand -31.3227 -42.5996
lfingers 7.12502
lthumb -4.5947 -12.6694
rfemur -94.8139 12.422 24.7864
rtibia 138.765
rfoot -3.3916 -12.7804
rtoes -3.56087
lfemur -7.80639 -2.46759 -19.2966
ltibia 1.07344e-014
lfoot 14.7125 -2.11551
ltoes -12.2978
581
root 4.90744 19.9555 7.27746 12.4074 -5.57981 -6.98913
lowerback 0.850836 -2.14339 4.93767
upperback -6.39612 -2.4637 3.37157
thorax -7.23178 -1.40301 0.954034
lowerneck -9.77496 -9.89222 -11.5068
upperneck 21.3313 -12.3362 2.78116
head 9.23191 -6.46172 1.38901
rclavicle 7.38019e-014 1.94809e-014
rhumerus -44.7059 7.44071 -84.4372
rradius 53.3363
rwrist 5.97804
rhand -21.2898 -53.987
rfingers 7.12502
rthumb 5.09455 -83.9058
lclavicle 7.38019e-014 1.94809e-014
lhumerus -43.7632 -17.0314 84.4042
lradius 59.7992
lwrist -3.15775
lhand -31.8089 -42.1076
lfingers 7.12502
lthumb -5.0642 -12.1881
rfemur -94.5275 13.1201 24.9329
rtibia 138.307
rfoot -3.41156 -13.162
rtoes -3.14615
lfemur -8.25121 -2.11396 -19.5872
ltibia -3.33958e-014
lfoot 14.342 -2.76743
ltoes -12.1311
